HIERARCHY
ROOT Hips
{
  OFFSET 0 0 0
  CHANNELS 6 Xposition Yposition Zposition Zrotation Yrotation Xrotation
  JOINT LeftThigh
  {
    OFFSET 8.409438 0 -5.917753
    CHANNELS 3 Zrotation Yrotation Xrotation
    JOINT LeftLeg
    {
      OFFSET 0 0 -42.358652
      CHANNELS 3 Zrotation Yrotation Xrotation
      JOINT LeftFoot
      {
        OFFSET 0 0 -39.357303
        CHANNELS 3 Zrotation Yrotation Xrotation
      }
    }
  }
  JOINT RightThigh
  {
    OFFSET -8.409438 0 -5.917753
    CHANNELS 3 Zrotation Yrotation Xrotation
    JOINT RightLeg
    {
      OFFSET 0 0 -42.358652
      CHANNELS 3 Zrotation Yrotation Xrotation
      JOINT RightFoot
      {
        OFFSET 0 0 -39.357303
        CHANNELS 3 Zrotation Yrotation Xrotation
      }
    }
  }
  JOINT SpineLow
  {
    OFFSET 0 0 4.719101
    CHANNELS 3 Zrotation Yrotation Xrotation
    JOINT SpineMid
    {
      OFFSET 0 0 12.899191
      CHANNELS 3 Zrotation Yrotation Xrotation
      JOINT Chest
      {
        OFFSET 0 0 12.899191
        CHANNELS 3 Zrotation Yrotation Xrotation
        JOINT LeftShoulder
        {
          OFFSET 7.550562 1.41573 9.438202
          CHANNELS 3 Zrotation Yrotation Xrotation
          JOINT LeftArm
          {
            OFFSET 9.155056 0 4.247191
            CHANNELS 3 Zrotation Yrotation Xrotation
            JOINT LeftForearm
            {
              OFFSET 0 0 25.771955
              CHANNELS 3 Zrotation Yrotation Xrotation
              JOINT LeftHand
              {
                OFFSET 0 0 25.197169
                CHANNELS 3 Zrotation Yrotation Xrotation
              }
            }
          }
        }
        JOINT RightShoulder
        {
          OFFSET -7.550562 1.41573 9.438202
          CHANNELS 3 Zrotation Yrotation Xrotation
          JOINT RightArm
          {
            OFFSET -9.155056 0 4.247191
            CHANNELS 3 Zrotation Yrotation Xrotation
            JOINT RightForearm
            {
              OFFSET 0 0 -25.771955
              CHANNELS 3 Zrotation Yrotation Xrotation
              JOINT RightHand
              {
                OFFSET 0 0 -25.197169
                CHANNELS 3 Zrotation Yrotation Xrotation
              }
            }
          }
        }
        JOINT Neck
        {
          OFFSET 0 0 15.101124
          CHANNELS 3 Zrotation Yrotation Xrotation
          JOINT Head
          {
            OFFSET 0 0 11.325843
            CHANNELS 3 Zrotation Yrotation Xrotation
            End Site
            {
              OFFSET 0 0 14.157303
            }
          }
        }
      }
    }
  }
}
MOTION
Frames: 10
Frame Time: 0.0
0.0  89.887642  0.0  1.615594  -1.581374  -92.858987  6.459105  -10.528809  0.981586  -5.211305  0.330515  12.739722  -3.925549  -1.117855  -1.134981  -8.644002  14.458545  -3.182502  -2.859815  1.709208  3.936307  -2.623335  -0.31659  -2.203858  0.060468  -0.497326  -0.219464  0.169818  -1.358829  -0.601204  0.169818  -1.358829  -0.601204  0.25297  19.579691  13.082706  136.922428  36.736638  -170.174487  -8.907491  -3.980055  40.37906  84.757131  -7.338394  12.746164  -5.783636  -9.09859  25.52609  93.514204  34.728329  41.319173  -1.868419  5.427742  -32.299093  90.56325  6.805322  -18.018223  -4.794518  4.516992  4.140999  -3.62488  3.355706  3.139867  
0.0  89.887642  0.0  1.552158  -1.344919  -92.895097  6.248576  -10.591966  1.036619  -5.219251  0.30956  12.699063  -3.884057  -1.088609  -1.126888  -9.258303  14.384383  -3.387184  -3.024979  1.787583  4.220509  -2.210676  -0.332708  -2.19773  0.046365  -0.504224  -0.2119  0.13117  -1.377828  -0.580252  0.13117  -1.377828  -0.580252  0.24151  19.577451  13.10023  137.025878  36.751538  -170.119228  -8.867451  -4.127865  40.520307  84.778296  -7.311079  12.821458  -5.863135  -9.048075  25.474559  93.376277  34.694976  41.252311  -1.865864  5.460373  -32.369303  90.45832  6.770402  -17.948811  -4.866914  4.504498  4.120909  -3.678927  3.34601  3.125258  
0.0  89.887642  0.0  1.526546  -1.110389  -93.039537  6.006063  -10.62416  1.186989  -5.215835  0.270745  12.68766  -3.87012  -1.113892  -1.10958  -9.359686  14.346378  -3.354666  -3.19823  1.954253  4.633351  -2.130239  -0.363864  -2.264477  0.030691  -0.500503  -0.197176  0.087983  -1.367814  -0.539667  0.087983  -1.367814  -0.539667  0.192843  19.570986  13.152306  137.049856  36.818007  -170.102802  -8.915949  -4.279444  40.644166  84.746156  -7.264799  13.013536  -5.894349  -9.011279  25.529719  93.201903  34.707186  41.181096  -1.90426  5.477104  -32.476097  90.424394  6.764227  -17.910713  -4.958516  4.466946  4.138737  -3.747506  3.317091  3.139029  
0.0  89.887642  0.0  1.479958  -0.878514  -93.151365  5.758703  -10.678155  1.262617  -5.389529  0.284378  12.606529  -3.734095  -1.090474  -1.042659  -9.799303  14.252569  -3.550676  -4.117759  2.147063  5.008814  -1.204934  -0.326949  -2.17341  0.04307  -0.506566  -0.17689  0.12145  -1.384323  -0.484477  0.12145  -1.384323  -0.484478  0.106905  19.620228  13.20273  137.114363  36.861402  -170.082703  -8.738096  -4.527714  40.906862  84.709122  -7.216124  13.34212  -6.110606  -8.927033  25.470714  93.01805  34.697295  41.087993  -1.90487  5.475129  -32.580888  90.319091  6.712907  -17.836442  -5.160205  4.452196  4.099718  -3.898328  3.305009  3.111159  
0.0  89.887642  0.0  1.486458  -0.527574  -93.261568  5.452576  -10.655148  1.339685  -5.459634  0.247522  12.653541  -3.685485  -1.132856  -1.006939  -10.044412  14.241647  -3.697855  -4.199907  2.354883  5.700782  -1.167575  -0.310599  -2.22278  0.022165  -0.495187  -0.173706  0.06415  -1.353376  -0.475322  0.06415  -1.353376  -0.475322  0.01852  19.646871  13.297058  137.108677  36.971478  -170.099003  -8.640256  -4.843933  41.044592  84.640955  -7.177439  13.837523  -6.184481  -8.88441  25.569  92.802034  34.714235  41.001209  -1.975631  5.456244  -32.70088  90.254049  6.690599  -17.772227  -5.339688  4.391368  4.10302  -4.032548  3.258168  3.114471  
0.0  89.887642  0.0  1.474549  -0.11085  -93.257173  5.05359  -10.617616  1.178351  -5.890073  0.255551  12.565423  -3.401434  -1.084163  -0.787825  -10.428727  14.187654  -4.074516  -4.259066  2.6145  6.55848  -1.225454  -0.292949  -2.262169  0.030332  -0.493658  -0.172218  0.086435  -1.349141  -0.47142  0.086435  -1.34914  -0.47142  -0.139142  19.779697  13.366943  137.229685  37.068629  -170.120279  -8.114854  -5.289901  41.348164  84.570438  -7.139238  14.388923  -6.609526  -8.759968  25.451522  92.727231  34.60465  40.931047  -1.943784  5.423823  -32.834313  90.084018  6.592179  -17.627151  -5.689422  4.345554  3.996854  -4.2937  3.222474  3.037036  
0.0  89.887642  0.0  1.551197  0.517021  -93.260014  4.611618  -10.486149  0.971365  -6.051215  0.253169  12.850422  -3.401865  -1.133563  -0.718209  -10.776331  14.231806  -4.479079  -4.310737  2.909569  7.625228  -1.239013  -0.246201  -2.303759  -0.012732  -0.462638  -0.180832  -0.031344  -1.264662  -0.494098  -0.031344  -1.264662  -0.494098  -0.289877  19.83397  13.422611  137.164167  37.253348  -170.16849  -7.683771  -5.776582  41.435264  84.527754  -7.16513  14.936796  -6.75783  -8.695643  25.536541  92.44059  34.628793  40.773777  -2.025181  5.40692  -32.970443  89.982462  6.52751  -17.506695  -6.013817  4.233872  3.903707  -4.53561  3.137524  2.968515  
0.0  89.887642  0.0  1.611972  1.37119  -93.20214  3.98731  -10.397863  0.549184  -6.500325  0.307013  13.129674  -3.243726  -1.075552  -0.525005  -11.143256  14.250472  -5.003587  -4.552475  3.273919  8.889745  -1.450885  -0.204144  -2.365052  -0.049663  -0.443201  -0.173612  -0.13258  -1.211795  -0.47369  -0.13258  -1.211795  -0.47369  -0.532748  20.009278  13.394613  137.359527  37.412013  -170.232576  -6.889756  -6.319987  41.716072  84.648164  -7.262913  15.415721  -7.310728  -8.49814  25.335916  92.391042  34.445718  40.683147  -2.067939  5.415488  -33.159706  89.778494  6.43021  -17.312321  -6.50583  4.155977  3.703081  -4.90266  3.07813  2.82078  
0.0  89.887642  0.0  1.767569  2.368841  -93.217518  3.288041  -10.240136  0.115903  -6.763119  0.459436  13.733046  -3.27106  -1.112849  -0.433962  -11.492456  14.355438  -5.553809  -4.783784  3.706162  10.412244  -1.49141  -0.115978  -2.403094  -0.131458  -0.395913  -0.170447  -0.356563  -1.083106  -0.463783  -0.356563  -1.083106  -0.463784  -0.653884  20.106457  13.453087  137.182355  37.730829  -170.290353  -6.261496  -6.873046  41.795446  84.714434  -7.317081  15.745418  -7.50614  -8.285993  25.400622  91.915532  34.452999  40.329967  -2.166845  5.483348  -33.380463  89.667726  6.332077  -17.136576  -6.96027  4.02346  3.571919  -5.241811  2.977513  2.724146  
0.0  89.887642  0.0  1.659101  3.372852  -93.197598  2.625064  -10.397167  -0.493729  -7.149965  0.710101  14.420527  -3.309998  -1.1045  -0.359559  -11.856781  14.162505  -6.214415  -5.108095  4.217541  12.177141  -1.607996  -0.040208  -2.44226  -0.1902  -0.397879  -0.163632  -0.51724  -1.088837  -0.444176  -0.51724  -1.088837  -0.444176  -0.698377  20.30766  13.604648  137.111921  38.142933  -170.288754  -5.711403  -7.371728  41.822999  85.040687  -7.542791  16.121643  -8.28624  -7.926961  25.06831  91.995913  33.916187  40.235384  -2.319822  5.611425  -33.764305  89.485446  6.223557  -16.886669  -7.526074  3.916701  3.413879  -5.664467  2.896131  2.608181  
